<svg width="24" height="11" viewBox="0 0 24 11" fill="none" xmlns="http://www.w3.org/2000/svg">
<path d="M22.7078 0H1.21162C0.542299 0 0 0.54229 0 1.2116V1.90694C0.000373742 2.19808 0.0843254 2.49057 0.279979 2.72785C0.36935 2.83581 0.48549 2.92691 0.616814 2.99428C0.823306 7.0224 4.15381 10.2242 8.23315 10.2246H15.6863C19.7653 10.2242 23.0955 7.02305 23.3023 2.99563C23.5065 2.89136 23.6666 2.72617 23.7658 2.54065C23.8717 2.3436 23.9191 2.12632 23.9195 1.90694V1.2116C23.9195 0.54229 23.3771 0 22.7078 0ZM20.3439 7.25566C19.1502 8.44834 17.5069 9.18427 15.6863 9.1846H8.23315C6.41247 9.18423 4.76927 8.44829 3.57559 7.25566C2.42119 6.10063 1.70113 4.52239 1.65544 2.77153H22.264C22.2183 4.52239 21.4983 6.10063 20.3439 7.25566ZM22.8795 1.90694C22.8799 1.99729 22.8514 2.05078 22.8395 2.0633L22.8287 2.07278L22.7928 2.0782H22.7573H22.2728H1.64661H1.12664L1.09076 2.07278L1.06876 2.04639C1.05554 2.02266 1.03966 1.97393 1.03998 1.90694V1.2116C1.04036 1.11649 1.11651 1.04034 1.21162 1.03997H22.7078C22.803 1.04034 22.8791 1.11649 22.8795 1.2116V1.90694Z" fill="#999999"/>
</svg>
