<svg width="18" height="15" viewBox="0 0 18 15" fill="none" xmlns="http://www.w3.org/2000/svg">
<path d="M1.79988 0C1.20789 0 0.71995 0.508301 0.71995 1.125V6.82031C0.721356 6.84375 0.725575 6.86719 0.731199 6.89062C0.731199 6.89502 0.731199 6.89795 0.731199 6.90234C0.569492 7.16748 0.437313 7.4502 0.337477 7.75781C0.113898 8.44482 0.01828 9.23291 0 10.125V10.5C0 10.5117 0 10.5234 0 10.5352V15H2.51982V13.5C2.51982 13.188 2.59295 13.0254 2.68856 12.9258C2.78418 12.8262 2.94026 12.75 3.23978 12.75H14.759C15.0585 12.75 15.2146 12.8262 15.3102 12.9258C15.4058 13.0254 15.4789 13.188 15.4789 13.5V15H17.9988V10.5586C18.0002 10.5396 18.0002 10.519 17.9988 10.5C17.9988 10.3711 18.0016 10.2495 17.9988 10.125C17.9805 9.23291 17.8849 8.44482 17.6613 7.75781C17.5614 7.45312 17.4279 7.17627 17.2676 6.91406C17.2746 6.8833 17.2788 6.85254 17.2788 6.82031V1.125C17.2788 0.508301 16.7909 0 16.1989 0H1.79988ZM1.79988 0.75H16.1989C16.4014 0.75 16.5589 0.914062 16.5589 1.125V6.05859C16.4703 5.98096 16.3761 5.90625 16.2776 5.83594C16.0372 5.66309 15.7756 5.50195 15.4789 5.36719V3.75C15.4789 3.48633 15.313 3.28125 15.1302 3.15234C14.9474 3.02344 14.7238 2.93408 14.444 2.85938C13.8843 2.70996 13.0983 2.625 12.0592 2.625C11.02 2.625 10.234 2.70996 9.67433 2.85938C9.40154 2.93262 9.17936 3.01611 8.99938 3.14062C8.81939 3.01611 8.59722 2.93262 8.32442 2.85938C7.76477 2.70996 6.97873 2.625 5.93959 2.625C4.90044 2.625 4.1144 2.70996 3.55475 2.85938C3.27493 2.93408 3.05135 3.02344 2.86855 3.15234C2.68575 3.28125 2.51982 3.48633 2.51982 3.75V5.36719C2.22313 5.50195 1.96158 5.66309 1.72113 5.83594C1.6227 5.90625 1.52849 5.98096 1.4399 6.05859V1.125C1.4399 0.914062 1.59739 0.75 1.79988 0.75ZM5.93959 3.375C6.94077 3.375 7.68322 3.46289 8.14443 3.58594C8.37504 3.64746 8.53394 3.72217 8.60565 3.77344C8.63518 3.79395 8.63659 3.79688 8.6394 3.79688V4.5C6.27285 4.51611 4.52078 4.70068 3.23978 5.10938V3.79688C3.24259 3.79688 3.24399 3.79395 3.27352 3.77344C3.34524 3.72217 3.50413 3.64746 3.73474 3.58594C4.19596 3.46289 4.93841 3.375 5.93959 3.375ZM12.0592 3.375C13.0603 3.375 13.8028 3.46289 14.264 3.58594C14.4946 3.64746 14.6535 3.72217 14.7252 3.77344C14.7548 3.79395 14.7562 3.79688 14.759 3.79688V5.10938C13.478 4.70068 11.7259 4.51611 9.35935 4.5V3.79688C9.36216 3.79688 9.36357 3.79395 9.3931 3.77344C9.46481 3.72217 9.62371 3.64746 9.85432 3.58594C10.3155 3.46289 11.058 3.375 12.0592 3.375ZM8.93188 5.25C8.96985 5.25586 9.00641 5.25586 9.04437 5.25C9.05562 5.25 9.06687 5.25 9.07812 5.25C12.6807 5.25586 14.7618 5.64844 15.8726 6.44531C16.4323 6.84668 16.7712 7.34473 16.9863 8.00391C17.1733 8.57812 17.2493 9.28564 17.2676 10.125H0.731199C0.749479 9.28564 0.825412 8.57812 1.01243 8.00391C1.22757 7.34473 1.56645 6.84668 2.1261 6.44531C3.23696 5.64697 5.32229 5.25439 8.93188 5.25ZM0.71995 10.875H17.2788V14.25H16.1989V13.5C16.1989 13.062 16.092 12.6621 15.8277 12.3867C15.5633 12.1113 15.1794 12 14.759 12H3.23978C2.81934 12 2.43546 12.1113 2.1711 12.3867C1.90674 12.6621 1.79988 13.062 1.79988 13.5V14.25H0.71995V10.875Z" fill="#999999"/>
</svg>
