<svg width="44" height="44" viewBox="0 0 44 44" fill="none" xmlns="http://www.w3.org/2000/svg">
<path d="M14.6667 21.9998V18.3332H18.3333V21.9998H14.6667ZM25.6667 21.9998V18.3332H29.3333V21.9998H25.6667ZM5.5 40.3332V25.6665H7.33333V18.3332C7.33333 16.3165 7.71528 14.4141 8.47917 12.626C9.24306 10.8379 10.2899 9.27956 11.6197 7.951C12.9494 6.62245 14.5078 5.57623 16.2947 4.81234C18.0816 4.04845 19.9833 3.6665 22 3.6665C24.0167 3.6665 25.9191 4.04845 27.7072 4.81234C29.4953 5.57623 31.0536 6.62306 32.3822 7.95284C33.7107 9.28261 34.7569 10.8409 35.5208 12.6278C36.2847 14.4147 36.6667 16.3165 36.6667 18.3332V25.6665H38.5V40.3332H5.5ZM9.16667 36.6665H12.8333V29.3332H9.16667V36.6665ZM16.5 36.6665H20.1667V29.3332H16.5V36.6665ZM11 25.6665H20.1667V7.47067C17.5389 7.89845 15.3542 9.128 13.6125 11.1593C11.8708 13.1907 11 15.5819 11 18.3332V25.6665ZM23.8333 25.6665H33V18.3332C33 15.5832 32.1292 13.1925 30.3875 11.1612C28.6458 9.12984 26.4611 7.89967 23.8333 7.47067V25.6665ZM23.8333 36.6665H27.5V29.3332H23.8333V36.6665ZM31.1667 36.6665H34.8333V29.3332H31.1667V36.6665Z" fill="#FF0000"/>
</svg>
