<svg width="9" height="11" viewBox="0 0 9 11" fill="none" xmlns="http://www.w3.org/2000/svg">
<path d="M5.6 0.5C6.44 0.5 6.86 0.5 7.181 0.67C7.46567 0.821734 7.6951 1.05956 7.8365 1.3495C8 1.682 8 2.1175 8 2.989V8.011C8 8.8825 8 9.318 7.8365 9.651C7.6951 9.94094 7.46567 10.1788 7.181 10.3305C6.86 10.5 6.44 10.5 5.6 10.5H2.9C2.06 10.5 1.64 10.5 1.319 10.33C1.03433 10.1783 0.804904 9.94044 0.6635 9.6505C0.5 9.318 0.5 8.8825 0.5 8.011V2.989C0.5 2.1175 0.5 1.682 0.6635 1.349C0.80499 1.05925 1.03441 0.821604 1.319 0.67C1.64 0.5 2.06 0.5 2.9 0.5H5.6Z" stroke="#919191" stroke-linecap="round" stroke-linejoin="round"/>
<path d="M3 10V7.25C3 6.98478 3.10536 6.73043 3.29289 6.54289C3.48043 6.35536 3.73478 6.25 4 6.25H4.5C4.76522 6.25 5.01957 6.35536 5.20711 6.54289C5.39464 6.73043 5.5 6.98478 5.5 7.25V10M3.25 2.5H2.25M3.25 4.5H2.25M6.25 2.5H5.25M6.25 4.5H5.25" stroke="#919191" stroke-linecap="round" stroke-linejoin="round"/>
</svg>
