<svg width="44" height="44" viewBox="0 0 44 44" fill="none" xmlns="http://www.w3.org/2000/svg">
<path d="M35.75 5.5H8.25C7.52065 5.5 6.82118 5.78973 6.30546 6.30546C5.78973 6.82118 5.5 7.52065 5.5 8.25V35.75C5.5 36.4793 5.78973 37.1788 6.30546 37.6945C6.82118 38.2103 7.52065 38.5 8.25 38.5H35.75C36.4793 38.5 37.1788 38.2103 37.6945 37.6945C38.2103 37.1788 38.5 36.4793 38.5 35.75V8.25C38.5 7.52065 38.2103 6.82118 37.6945 6.30546C37.1788 5.78973 36.4793 5.5 35.75 5.5ZM30.25 19.25V35.75H23.375V19.25H30.25ZM20.625 35.75H13.75V19.25H20.625V35.75ZM35.75 35.75H33V17.875C33 17.5103 32.8551 17.1606 32.5973 16.9027C32.3394 16.6449 31.9897 16.5 31.625 16.5H12.375C12.0103 16.5 11.6606 16.6449 11.4027 16.9027C11.1449 17.1606 11 17.5103 11 17.875V35.75H8.25V8.25H35.75V35.75ZM26.125 12.375C26.125 12.7397 25.9801 13.0894 25.7223 13.3473C25.4644 13.6051 25.1147 13.75 24.75 13.75H19.25C18.8853 13.75 18.5356 13.6051 18.2777 13.3473C18.0199 13.0894 17.875 12.7397 17.875 12.375C17.875 12.0103 18.0199 11.6606 18.2777 11.4027C18.5356 11.1449 18.8853 11 19.25 11H24.75C25.1147 11 25.4644 11.1449 25.7223 11.4027C25.9801 11.6606 26.125 12.0103 26.125 12.375Z" fill="#FF0000"/>
</svg>
