<svg width="44" height="44" viewBox="0 0 44 44" fill="none" xmlns="http://www.w3.org/2000/svg">
<g clip-path="url(#clip0_3768_642)">
<path d="M22 11.9165V12.8332M22 11.9165C22 8.99912 23.1589 6.20123 25.2218 4.13833C27.2847 2.07543 30.0826 0.916504 33 0.916504H33.9167V12.8332C33.9167 15.9937 32.6612 19.0247 30.4264 21.2595C28.1915 23.4943 25.1605 24.7498 22 24.7498M22 11.9165C22 8.99912 20.8411 6.20123 18.7782 4.13833C16.7153 2.07543 13.9174 0.916504 11 0.916504H10.0833V12.8332C10.0833 15.9937 11.3388 19.0247 13.5736 21.2595C15.8085 23.4943 18.8395 24.7498 22 24.7498M22 24.7498V42.1665M22 24.7498V41.2498M22 43.0832H13.75C10.8326 43.0832 8.03473 41.9242 5.97183 39.8613C3.90893 37.7984 2.75 35.0006 2.75 32.0832H11C13.9174 32.0832 16.7153 33.2421 18.7782 35.305C20.8411 37.3679 22 40.1658 22 43.0832ZM22 43.0832H30.25C33.1674 43.0832 35.9653 41.9242 38.0282 39.8613C40.0911 37.7984 41.25 35.0006 41.25 32.0832H33C30.0826 32.0832 27.2847 33.2421 25.2218 35.305C23.1589 37.3679 22 40.1658 22 43.0832Z" stroke="#FF0000" stroke-width="3"/>
</g>
<defs>
<clipPath id="clip0_3768_642">
<rect width="44" height="44" fill="white"/>
</clipPath>
</defs>
</svg>
