<svg width="44" height="44" viewBox="0 0 44 44" fill="none" xmlns="http://www.w3.org/2000/svg">
<path d="M13.5666 12.8335H8.43325C8.14151 12.8335 7.86172 12.9494 7.65543 13.1557C7.44914 13.362 7.33325 13.6418 7.33325 13.9335V30.0668C7.33325 30.2113 7.3617 30.3543 7.41698 30.4878C7.47226 30.6212 7.55329 30.7425 7.65543 30.8446C7.75758 30.9468 7.87884 31.0278 8.0123 31.0831C8.14576 31.1384 8.2888 31.1668 8.43325 31.1668H13.5666C13.711 31.1668 13.8541 31.1384 13.9875 31.0831C14.121 31.0278 14.2423 30.9468 14.3444 30.8446C14.4465 30.7425 14.5276 30.6212 14.5829 30.4878C14.6381 30.3543 14.6666 30.2113 14.6666 30.0668V13.9335C14.6666 13.6418 14.5507 13.362 14.3444 13.1557C14.1381 12.9494 13.8583 12.8335 13.5666 12.8335ZM35.5666 12.8335H30.4333C30.1415 12.8335 29.8617 12.9494 29.6554 13.1557C29.4491 13.362 29.3333 13.6418 29.3333 13.9335V30.0668C29.3333 30.2113 29.3617 30.3543 29.417 30.4878C29.4723 30.6212 29.5533 30.7425 29.6554 30.8446C29.7576 30.9468 29.8788 31.0278 30.0123 31.0831C30.1458 31.1384 30.2888 31.1668 30.4333 31.1668H35.5666C35.711 31.1668 35.8541 31.1384 35.9875 31.0831C36.121 31.0278 36.2423 30.9468 36.3444 30.8446C36.4465 30.7425 36.5276 30.6212 36.5829 30.4878C36.6381 30.3543 36.6666 30.2113 36.6666 30.0668V13.9335C36.6666 13.6418 36.5507 13.362 36.3444 13.1557C36.1381 12.9494 35.8583 12.8335 35.5666 12.8335Z" stroke="#FF0000" stroke-width="3" stroke-linecap="round" stroke-linejoin="round"/>
<path d="M14.6666 22H29.3333M1.83325 26.4V17.6C1.83325 17.3083 1.94914 17.0285 2.15543 16.8222C2.36172 16.6159 2.64151 16.5 2.93325 16.5H6.23325C6.52499 16.5 6.80478 16.6159 7.01107 16.8222C7.21736 17.0285 7.33325 17.3083 7.33325 17.6V26.4C7.33325 26.6917 7.21736 26.9715 7.01107 27.1778C6.80478 27.3841 6.52499 27.5 6.23325 27.5H2.93325C2.64151 27.5 2.36172 27.3841 2.15543 27.1778C1.94914 26.9715 1.83325 26.6917 1.83325 26.4ZM42.1666 26.4V17.6C42.1666 17.3083 42.0507 17.0285 41.8444 16.8222C41.6381 16.6159 41.3583 16.5 41.0666 16.5H37.7666C37.4748 16.5 37.1951 16.6159 36.9888 16.8222C36.7825 17.0285 36.6666 17.3083 36.6666 17.6V26.4C36.6666 26.6917 36.7825 26.9715 36.9888 27.1778C37.1951 27.3841 37.4748 27.5 37.7666 27.5H41.0666C41.3583 27.5 41.6381 27.3841 41.8444 27.1778C42.0507 26.9715 42.1666 26.6917 42.1666 26.4Z" stroke="#FF0000" stroke-width="3" stroke-linecap="round" stroke-linejoin="round"/>
</svg>
