<svg width="16" height="16" viewBox="0 0 16 16" fill="none" xmlns="http://www.w3.org/2000/svg">
<path d="M14.2862 11.5102V4.49084C14.6761 4.39092 15.0327 4.18959 15.3196 3.9073C15.6066 3.62501 15.8138 3.27181 15.9201 2.88357C16.0264 2.49532 16.0281 2.08586 15.9249 1.69675C15.8218 1.30765 15.6176 0.952762 15.3329 0.668125C15.0483 0.383488 14.6934 0.179241 14.3043 0.0761204C13.9152 -0.0269997 13.5057 -0.0253194 13.1175 0.0809906C12.7292 0.187301 12.376 0.394454 12.0938 0.681417C11.8115 0.96838 11.6101 1.32493 11.5102 1.71487H4.49084C4.39092 1.32493 4.18959 0.96838 3.9073 0.681417C3.62501 0.394454 3.27181 0.187301 2.88357 0.0809906C2.49532 -0.0253194 2.08586 -0.0269997 1.69675 0.0761204C1.30765 0.179241 0.952762 0.383488 0.668125 0.668125C0.383488 0.952762 0.179241 1.30765 0.0761204 1.69675C-0.0269997 2.08586 -0.0253194 2.49532 0.0809906 2.88357C0.187301 3.27181 0.394454 3.62501 0.681417 3.9073C0.96838 4.18959 1.32493 4.39092 1.71487 4.49084V11.5102C1.32493 11.6101 0.96838 11.8115 0.681417 12.0938C0.394454 12.376 0.187301 12.7292 0.0809906 13.1175C-0.0253194 13.5057 -0.0269997 13.9152 0.0761204 14.3043C0.179241 14.6934 0.383488 15.0483 0.668125 15.3329C0.952762 15.6176 1.30765 15.8218 1.69675 15.9249C2.08586 16.0281 2.49532 16.0264 2.88357 15.9201C3.27181 15.8138 3.62501 15.6066 3.9073 15.3196C4.18959 15.0327 4.39092 14.6761 4.49084 14.2862H11.5102C11.6101 14.6761 11.8115 15.0327 12.0938 15.3196C12.376 15.6066 12.7292 15.8138 13.1175 15.9201C13.5057 16.0264 13.9152 16.0281 14.3043 15.9249C14.6934 15.8218 15.0483 15.6176 15.3329 15.3329C15.6176 15.0483 15.8218 14.6934 15.9249 14.3043C16.0281 13.9152 16.0264 13.5057 15.9201 13.1175C15.8138 12.7292 15.6066 12.376 15.3196 12.0938C15.0327 11.8115 14.6761 11.6101 14.2862 11.5102ZM13.7148 1.14345C13.9408 1.14345 14.1617 1.21047 14.3497 1.33605C14.5376 1.46163 14.6841 1.64012 14.7706 1.84895C14.8571 2.05777 14.8797 2.28756 14.8356 2.50925C14.7915 2.73094 14.6827 2.93458 14.5229 3.09441C14.363 3.25424 14.1594 3.36308 13.9377 3.40718C13.716 3.45128 13.4862 3.42865 13.2774 3.34215C13.0686 3.25565 12.8901 3.10916 12.7645 2.92122C12.6389 2.73328 12.5719 2.51233 12.5719 2.28629C12.5719 1.98319 12.6923 1.6925 12.9066 1.47818C13.121 1.26385 13.4117 1.14345 13.7148 1.14345ZM1.14345 2.28629C1.14345 2.06026 1.21047 1.8393 1.33605 1.65136C1.46163 1.46342 1.64012 1.31694 1.84895 1.23044C2.05777 1.14394 2.28756 1.12131 2.50925 1.16541C2.73094 1.2095 2.93458 1.31835 3.09441 1.47818C3.25424 1.63801 3.36308 1.84164 3.40718 2.06334C3.45128 2.28503 3.42865 2.51481 3.34215 2.72364C3.25565 2.93247 3.10916 3.11096 2.92122 3.23654C2.73328 3.36211 2.51233 3.42914 2.28629 3.42914C1.98319 3.42914 1.6925 3.30873 1.47818 3.09441C1.26385 2.88008 1.14345 2.5894 1.14345 2.28629ZM2.28629 14.8576C2.06026 14.8576 1.8393 14.7906 1.65136 14.665C1.46342 14.5394 1.31694 14.3609 1.23044 14.1521C1.14394 13.9433 1.12131 13.7135 1.16541 13.4918C1.2095 13.2701 1.31835 13.0665 1.47818 12.9066C1.63801 12.7468 1.84164 12.638 2.06334 12.5939C2.28503 12.5498 2.51481 12.5724 2.72364 12.6589C2.93247 12.7454 3.11096 12.8919 3.23654 13.0798C3.36211 13.2678 3.42914 13.4887 3.42914 13.7148C3.42914 14.0179 3.30873 14.3085 3.09441 14.5229C2.88008 14.7372 2.5894 14.8576 2.28629 14.8576ZM11.5102 13.1433H4.49084C4.38816 12.7506 4.18275 12.3923 3.89573 12.1053C3.6087 11.8183 3.25042 11.6129 2.85772 11.5102V4.49084C3.25042 4.38816 3.6087 4.18275 3.89573 3.89573C4.18275 3.6087 4.38816 3.25042 4.49084 2.85772H11.5102C11.6129 3.25042 11.8183 3.6087 12.1053 3.89573C12.3923 4.18275 12.7506 4.38816 13.1433 4.49084V11.5102C12.7504 11.6123 12.3918 11.8176 12.1047 12.1047C11.8176 12.3918 11.6123 12.7504 11.5102 13.1433ZM13.7148 14.8576C13.4887 14.8576 13.2678 14.7906 13.0798 14.665C12.8919 14.5394 12.7454 14.3609 12.6589 14.1521C12.5724 13.9433 12.5498 13.7135 12.5939 13.4918C12.638 13.2701 12.7468 13.0665 12.9066 12.9066C13.0665 12.7468 13.2701 12.638 13.4918 12.5939C13.7135 12.5498 13.9433 12.5724 14.1521 12.6589C14.3609 12.7454 14.5394 12.8919 14.665 13.0798C14.7906 13.2678 14.8576 13.4887 14.8576 13.7148C14.8572 14.0177 14.7366 14.3081 14.5224 14.5224C14.3081 14.7366 14.0177 14.8572 13.7148 14.8576Z" fill="#999999"/>
</svg>
