<svg width="24" height="12" viewBox="0 0 24 12" fill="none" xmlns="http://www.w3.org/2000/svg">
<path d="M4.10271 10.0345C3.56172 10.0345 3.12164 10.4746 3.12164 11.0156C3.12164 11.5596 3.56172 12 4.10271 12C4.64332 12 5.06276 11.7089 5.2571 11.0812C5.31938 10.8873 5.40267 10.4922 5.45817 10.1107C5.10443 9.98577 4.76115 9.83342 4.43548 9.66351C4.35223 9.94788 4.19983 10.0345 4.10271 10.0345Z" fill="#999999"/>
<path d="M19.744 10.0345C19.6468 10.0345 19.4942 9.94788 19.4112 9.66351C19.0852 9.83347 18.7419 9.98577 18.3885 10.1107C18.4474 10.4922 18.5307 10.8873 18.5896 11.0812C18.7835 11.7089 19.203 12 19.744 12C20.288 12 20.7284 11.5596 20.7284 11.0156C20.7285 10.4746 20.288 10.0345 19.744 10.0345Z" fill="#999999"/>
<path d="M22.7078 0H1.21162C0.542299 0 0 0.54229 0 1.2116V1.90694C0.000373742 2.19808 0.0843254 2.49057 0.279979 2.72785C0.36935 2.83581 0.48549 2.92691 0.616814 2.99428C0.823306 7.0224 4.15381 10.2242 8.23315 10.2246H15.6863C19.7653 10.2242 23.0955 7.02305 23.3023 2.99563C23.5065 2.89136 23.6666 2.72617 23.7658 2.54065C23.8717 2.3436 23.9191 2.12632 23.9195 1.90694V1.2116C23.9195 0.54229 23.3771 0 22.7078 0ZM20.3439 7.25566C19.1502 8.44834 17.5069 9.18427 15.6863 9.1846H8.23315C6.41247 9.18423 4.76927 8.44829 3.57559 7.25566C2.42119 6.10063 1.70113 4.52239 1.65544 2.77153H22.264C22.2183 4.52239 21.4983 6.10063 20.3439 7.25566ZM22.8795 1.90694C22.8799 1.99729 22.8514 2.05078 22.8395 2.0633L22.8287 2.07278L22.7928 2.0782H22.7573H22.2728H1.64661H1.12664L1.09076 2.07278L1.06876 2.04639C1.05554 2.02266 1.03966 1.97393 1.03998 1.90694V1.2116C1.04036 1.11649 1.11651 1.04034 1.21162 1.03997H22.7078C22.803 1.04034 22.8791 1.11649 22.8795 1.2116V1.90694Z" fill="#999999"/>
<path d="M3.43916 4.16765C3.9175 5.60504 4.97071 6.77908 6.3265 7.41789C6.4995 7.4995 6.70599 7.42536 6.7876 7.25204C6.86917 7.07905 6.79508 6.87256 6.62176 6.79095V6.79067C5.43723 6.2331 4.51404 5.2036 4.09727 3.94906C4.03668 3.76729 3.84032 3.66909 3.65887 3.72935C3.47709 3.7899 3.37889 3.98625 3.43916 4.16765Z" fill="#999999"/>
</svg>
