<svg width="20" height="20" viewBox="0 0 20 20" fill="none" xmlns="http://www.w3.org/2000/svg">
<path d="M10.0476 0.500977C11.2386 0.497275 12.4183 0.729935 13.5183 1.18652C14.619 1.64341 15.6183 2.31442 16.4568 3.16113H16.4558C18.1642 4.87001 19.1062 7.14697 19.1062 9.56738C19.1062 14.5589 15.0391 18.6259 10.0476 18.626C8.59703 18.626 7.17231 18.2744 5.89236 17.6133L1.54666 18.7568L0.709747 18.9766L0.937286 18.1416L2.09256 13.8975C1.37319 12.5729 0.989044 11.0867 0.989044 9.55859C0.989103 4.56763 5.05492 0.501937 10.0457 0.500977H10.0467H10.0476Z" stroke="#249F62"/>
<g clip-path="url(#clip0_2458_4095)">
<path d="M14.1695 11.7237L14.1908 12.857C14.1932 12.9622 14.1737 13.0667 14.1333 13.1639C14.093 13.2611 14.0328 13.3488 13.9566 13.4214C13.8804 13.494 13.7899 13.5499 13.6909 13.5854C13.5919 13.621 13.4865 13.6355 13.3815 13.628C12.2167 13.5236 11.0925 13.1474 10.0995 12.5297C9.17579 11.9669 8.38735 11.2076 7.79015 10.3057C7.13314 9.33223 6.71469 8.21765 6.56869 7.05229C6.55728 6.948 6.56771 6.84247 6.59932 6.74244C6.63093 6.6424 6.68302 6.55004 6.75228 6.47124C6.82154 6.39244 6.90644 6.32892 7.0016 6.28473C7.09675 6.24055 7.20006 6.21665 7.30495 6.21458L8.43827 6.19323C8.62157 6.18797 8.80053 6.24955 8.94179 6.36648C9.08305 6.48341 9.17698 6.64771 9.20605 6.82877C9.26072 7.19056 9.35614 7.545 9.49049 7.88533C9.54387 8.01959 9.55763 8.16633 9.53017 8.30818C9.5027 8.45002 9.43514 8.58101 9.33551 8.68564L8.86477 9.17445C9.42037 10.1101 10.2182 10.8784 11.1741 11.3984L11.6448 10.9096C11.7456 10.8061 11.874 10.7336 12.0147 10.7009C12.1554 10.6681 12.3026 10.6763 12.4387 10.7246C12.7839 10.846 13.1417 10.928 13.5053 10.969C13.6893 10.9915 13.8586 11.0807 13.9811 11.2199C14.1035 11.359 14.1706 11.5383 14.1695 11.7237Z" stroke="#249F62" stroke-linecap="round" stroke-linejoin="round"/>
</g>
<defs>
<clipPath id="clip0_2458_4095">
<rect width="9.06818" height="9.06818" fill="white" transform="translate(5.73807 5.48828) rotate(-1.0791)"/>
</clipPath>
</defs>
</svg>
