<svg width="44" height="44" viewBox="0 0 44 44" fill="none" xmlns="http://www.w3.org/2000/svg">
<path d="M7.5625 22L2.0625 12.4667L14.1625 5.5H16.5C16.9889 6.96667 17.5694 8.25 18.2417 9.35C18.9139 10.45 20.1667 11 22 11C23.8333 11 25.0861 10.45 25.7583 9.35C26.4306 8.25 27.0111 6.96667 27.5 5.5H29.8375L41.8917 12.5125L36.4375 22L33 20.1208V28.9208L30.1125 31.4417C30.0208 31.5028 29.8986 31.5792 29.7458 31.6708C29.5931 31.7625 29.4556 31.8389 29.3333 31.9V13.8875L35.0625 17.05L36.8958 13.8417L29.8833 9.7625C29.15 11.2597 28.0726 12.4514 26.6512 13.3375C25.2297 14.2236 23.6793 14.6667 22 14.6667C20.3207 14.6667 18.7703 14.2236 17.3488 13.3375C15.9274 12.4514 14.85 11.2597 14.1167 9.7625L7.05833 13.8417L8.9375 17.05L14.6667 13.8875V24.75C14.025 24.8111 13.3986 24.9107 12.7875 25.0488C12.1764 25.1869 11.5806 25.3776 11 25.6208V20.1208L7.5625 22ZM8.525 35.5208L6.14167 32.725L10.1292 29.3333C10.8319 28.7222 11.6343 28.2559 12.5363 27.9345C13.4383 27.6131 14.3776 27.4529 15.3542 27.4542C16.3307 27.4554 17.2627 27.6161 18.15 27.9363C19.0373 28.2566 19.8318 28.7222 20.5333 29.3333L25.85 33.8708C26.2167 34.1764 26.6524 34.4135 27.1572 34.5822C27.6619 34.7508 28.1734 34.8346 28.6917 34.8333C29.2417 34.8333 29.7538 34.7569 30.228 34.6042C30.7022 34.4514 31.1221 34.2069 31.4875 33.8708L35.475 30.4333L37.8583 33.275L33.8708 36.6667C33.1681 37.2778 32.3736 37.7361 31.4875 38.0417C30.6014 38.3472 29.6694 38.5 28.6917 38.5C27.7139 38.5 26.7746 38.3472 25.8738 38.0417C24.9731 37.7361 24.1707 37.2778 23.4667 36.6667L18.15 32.1292C17.7833 31.8236 17.3635 31.5871 16.8905 31.4197C16.4175 31.2522 15.9054 31.1679 15.3542 31.1667C14.8347 31.1667 14.3232 31.251 13.8197 31.4197C13.3161 31.5883 12.8804 31.8248 12.5125 32.1292L8.525 35.5208Z" fill="#FF0000"/>
</svg>
