<svg width="44" height="44" viewBox="0 0 44 44" fill="none" xmlns="http://www.w3.org/2000/svg">
<g clip-path="url(#clip0_3768_288)">
<path d="M33.0001 1.57129H11.0001C8.49949 1.57129 6.1013 2.56465 4.3331 4.33285C2.5649 6.10106 1.57153 8.49925 1.57153 10.9999V32.9999C1.57153 35.5005 2.5649 37.8987 4.3331 39.6669C6.1013 41.4351 8.49949 42.4284 11.0001 42.4284H33.0001C35.5007 42.4284 37.8989 41.4351 39.6671 39.6669C41.4353 37.8987 42.4287 35.5005 42.4287 32.9999V10.9999C42.4287 8.49925 41.4353 6.10106 39.6671 4.33285C37.8989 2.56465 35.5007 1.57129 33.0001 1.57129Z" stroke="#FF0000" stroke-width="3" stroke-linecap="round" stroke-linejoin="round"/>
<path d="M16.3713 33.044V23.8418M16.3713 23.8418V10.9561H26.3813C27.6316 10.9561 28.8307 11.4527 29.7148 12.3368C30.5989 13.2209 31.0956 14.42 31.0956 15.6703V19.1275C31.0956 20.3778 30.5989 21.5769 29.7148 22.461C28.8307 23.3451 27.6316 23.8418 26.3813 23.8418H16.3713Z" stroke="#FF0000" stroke-width="3" stroke-linecap="round" stroke-linejoin="round"/>
</g>
<defs>
<clipPath id="clip0_3768_288">
<rect width="44" height="44" fill="white"/>
</clipPath>
</defs>
</svg>
