<svg width="44" height="44" viewBox="0 0 44 44" fill="none" xmlns="http://www.w3.org/2000/svg">
<path d="M22 18.3335C16.1938 18.3335 11.2878 23.4036 9.70383 29.9156C9.00717 32.7792 10.0577 35.8189 12.6363 37.2471C14.6804 38.3792 17.721 39.4168 22 39.4168C26.279 39.4168 29.3205 38.3792 31.3647 37.2471C33.9433 35.8189 34.9928 32.7792 34.2962 29.9156C32.7122 23.4027 27.8062 18.3335 22 18.3335ZM2.75 16.9072C2.75 19.439 4.39083 22.0002 6.41667 22.0002C8.4425 22.0002 10.0833 19.439 10.0833 16.9072C10.0833 14.3753 8.4425 12.8335 6.41667 12.8335C4.39083 12.8335 2.75 14.3762 2.75 16.9072ZM41.25 16.9072C41.25 19.439 39.6092 22.0002 37.5833 22.0002C35.5575 22.0002 33.9167 19.439 33.9167 16.9072C33.9167 14.3753 35.5575 12.8335 37.5833 12.8335C39.6092 12.8335 41.25 14.3762 41.25 16.9072ZM12.375 8.65716C12.375 11.189 14.0158 13.7502 16.0417 13.7502C18.0675 13.7502 19.7083 11.189 19.7083 8.65716C19.7083 6.12533 18.0675 4.5835 16.0417 4.5835C14.0158 4.5835 12.375 6.12625 12.375 8.65716ZM31.625 8.65716C31.625 11.189 29.9842 13.7502 27.9583 13.7502C25.9325 13.7502 24.2917 11.189 24.2917 8.65716C24.2917 6.12533 25.9325 4.5835 27.9583 4.5835C29.9842 4.5835 31.625 6.12625 31.625 8.65716Z" stroke="#FF0000" stroke-width="3" stroke-linecap="round" stroke-linejoin="round"/>
</svg>
