<svg width="44" height="44" viewBox="0 0 44 44" fill="none" xmlns="http://www.w3.org/2000/svg">
<path d="M15.18 8.25717C17.0408 7.10217 18.3516 6.29184 19.4461 5.75834C20.5113 5.2395 21.2666 5.0415 22 5.0415C22.7333 5.0415 23.4886 5.2395 24.5538 5.75834C25.6501 6.29 26.9591 7.10217 28.82 8.25717L32.4866 10.5323C34.2485 11.6268 35.486 12.395 36.41 13.1027C37.3065 13.7902 37.8216 14.3567 38.1755 15.002C38.5293 15.6492 38.7365 16.4063 38.8446 17.565C38.9565 18.753 38.9583 20.2508 38.9583 22.3738V25.1623C38.9583 28.774 38.9546 31.3517 38.7016 33.3078C38.4523 35.2292 37.9811 36.3438 37.1983 37.156C36.4191 37.9608 35.3595 38.4393 33.5243 38.6942C31.6433 38.9545 29.1628 38.9582 25.6666 38.9582C25.302 38.9582 24.9522 39.103 24.6944 39.3609C24.4365 39.6188 24.2916 39.9685 24.2916 40.3332C24.2916 40.6978 24.4365 41.0476 24.6944 41.3054C24.9522 41.5633 25.302 41.7082 25.6666 41.7082H25.773C29.139 41.7082 31.812 41.7082 33.902 41.4167C36.0598 41.1178 37.8033 40.4835 39.1746 39.0663C40.5368 37.6565 41.1418 35.8727 41.4296 33.6635C41.7083 31.5093 41.7083 28.7538 41.7083 25.2632V22.306C41.7083 20.2655 41.7083 18.6393 41.5836 17.3083C41.4553 15.9333 41.1858 14.7728 40.5881 13.682C39.9886 12.5875 39.1581 11.746 38.0801 10.9192C37.0388 10.1198 35.6858 9.282 33.9973 8.23334L30.2078 5.88117C28.424 4.77384 26.994 3.8865 25.7583 3.28517C24.4768 2.66184 23.298 2.2915 22 2.2915C20.702 2.2915 19.5231 2.66367 18.2416 3.28517C17.006 3.8865 15.576 4.77384 13.7921 5.88117L10.0026 8.23334C8.31597 9.282 6.96114 10.1217 5.9198 10.9192C4.83997 11.7442 4.0113 12.5875 3.4118 13.682C2.68214 15.0167 2.44014 16.4613 2.34847 18.2635C2.33747 18.4449 2.36253 18.6266 2.4222 18.7983C2.48187 18.9699 2.57497 19.128 2.69612 19.2635C2.81726 19.3989 2.96405 19.509 3.128 19.5873C3.29195 19.6657 3.4698 19.7108 3.65128 19.72C3.83276 19.7292 4.01426 19.7023 4.1853 19.641C4.35633 19.5796 4.51351 19.4849 4.64774 19.3625C4.78197 19.24 4.89059 19.0921 4.96733 18.9274C5.04406 18.7627 5.08739 18.5844 5.0948 18.4028C5.17914 16.7455 5.38997 15.794 5.82447 15.002C6.1783 14.3567 6.69347 13.7902 7.5918 13.1027C8.51397 12.395 9.75147 11.6268 11.5133 10.5323L15.18 8.25717Z" fill="#FF0000"/>
<path d="M3.66675 22.4585C3.30208 22.4585 2.95234 22.6034 2.69448 22.8612C2.43661 23.1191 2.29175 23.4688 2.29175 23.8335C2.29175 24.1982 2.43661 24.5479 2.69448 24.8058C2.95234 25.0636 3.30208 25.2085 3.66675 25.2085C7.67815 25.2085 11.5253 26.802 14.3617 29.6385C17.1982 32.475 18.7917 36.3221 18.7917 40.3335C18.7917 40.6982 18.9366 41.0479 19.1945 41.3058C19.4523 41.5636 19.8021 41.7085 20.1667 41.7085C20.5314 41.7085 20.8812 41.5636 21.139 41.3058C21.3969 41.0479 21.5417 40.6982 21.5417 40.3335C21.5417 35.5928 19.6585 31.0462 16.3063 27.694C12.9541 24.3418 8.40749 22.4585 3.66675 22.4585Z" fill="#FF0000"/>
<path d="M2.29175 29.3335C2.29175 28.9688 2.43661 28.6191 2.69448 28.3612C2.95234 28.1034 3.30208 27.9585 3.66675 27.9585C6.9488 27.9585 10.0964 29.2623 12.4172 31.5831C14.738 33.9038 16.0417 37.0514 16.0417 40.3335C16.0417 40.6982 15.8969 41.0479 15.639 41.3058C15.3812 41.5636 15.0314 41.7085 14.6667 41.7085C14.3021 41.7085 13.9523 41.5636 13.6945 41.3058C13.4366 41.0479 13.2917 40.6982 13.2917 40.3335C13.2917 35.0168 8.98342 30.7085 3.66675 30.7085C3.30208 30.7085 2.95234 30.5636 2.69448 30.3058C2.43661 30.0479 2.29175 29.6982 2.29175 29.3335Z" fill="#FF0000"/>
<path d="M3.66675 33.4585C3.30208 33.4585 2.95234 33.6034 2.69448 33.8612C2.43661 34.1191 2.29175 34.4688 2.29175 34.8335C2.29175 35.1982 2.43661 35.5479 2.69448 35.8058C2.95234 36.0636 3.30208 36.2085 3.66675 36.2085C4.76077 36.2085 5.80998 36.6431 6.58356 37.4167C7.35715 38.1903 7.79175 39.2395 7.79175 40.3335C7.79175 40.6982 7.93661 41.0479 8.19448 41.3058C8.45234 41.5636 8.80208 41.7085 9.16675 41.7085C9.53142 41.7085 9.88116 41.5636 10.139 41.3058C10.3969 41.0479 10.5417 40.6982 10.5417 40.3335C10.5417 38.5101 9.81742 36.7614 8.52811 35.4721C7.23879 34.1828 5.49011 33.4585 3.66675 33.4585Z" fill="#FF0000"/>
</svg>
