<svg width="44" height="44" viewBox="0 0 44 44" fill="none" xmlns="http://www.w3.org/2000/svg">
<path d="M12.6501 8.8C12.2125 8.8 11.7928 8.97384 11.4833 9.28327C11.1739 9.59271 11.0001 10.0124 11.0001 10.45V11.55C11.0001 11.9876 10.8262 12.4073 10.5168 12.7167C10.2074 13.0262 9.78767 13.2 9.35007 13.2C8.91246 13.2 8.49278 13.0262 8.18334 12.7167C7.87391 12.4073 7.70007 11.9876 7.70007 11.55V10.45C7.70007 9.13718 8.22158 7.87813 9.14989 6.94982C10.0782 6.02152 11.3372 5.5 12.6501 5.5C13.9629 5.5 15.2219 6.02152 16.1502 6.94982C17.0786 7.87813 17.6001 9.13718 17.6001 10.45V16.5H28.6001V10.45C28.6001 10.0124 28.4262 9.59271 28.1168 9.28327C27.8074 8.97384 27.3877 8.8 26.9501 8.8C26.5125 8.8 26.0928 8.97384 25.7833 9.28327C25.4739 9.59271 25.3001 10.0124 25.3001 10.45V11.55C25.3001 11.9876 25.1262 12.4073 24.8168 12.7167C24.5074 13.0262 24.0877 13.2 23.6501 13.2C23.2125 13.2 22.7928 13.0262 22.4833 12.7167C22.1739 12.4073 22.0001 11.9876 22.0001 11.55V10.45C22.0001 9.13718 22.5216 7.87813 23.4499 6.94982C24.3782 6.02152 25.6372 5.5 26.9501 5.5C28.2629 5.5 29.5219 6.02152 30.4502 6.94982C31.3786 7.87813 31.9001 9.13718 31.9001 10.45V25.9182C30.8335 26.257 29.719 26.4205 28.6001 26.4022V19.8H17.6001V22.5038C16.5209 22.2227 15.4144 22.0597 14.3001 22.0176V10.45C14.3001 10.0124 14.1262 9.59271 13.8168 9.28327C13.5074 8.97384 13.0877 8.8 12.6501 8.8ZM12.7887 27.5594C11.5091 27.6917 10.2864 28.1567 9.24227 28.908C8.89072 29.1688 8.44997 29.2793 8.01697 29.2151C7.58396 29.151 7.19418 28.9174 6.93337 28.5659C6.67255 28.2144 6.56207 27.7736 6.62623 27.3406C6.69038 26.9076 6.92392 26.5178 7.27547 26.257C8.78684 25.1599 10.5597 24.4786 12.4169 24.2814C14.9315 23.9954 18.0753 24.4772 21.7317 26.5958C28.1843 30.3402 33.3983 27.8696 34.9251 26.9742C35.3026 26.7528 35.7526 26.6904 36.1761 26.8007C36.5996 26.9111 36.9619 27.1852 37.1834 27.5627C37.4048 27.9402 37.4672 28.3902 37.3568 28.8137C37.2465 29.2372 36.9724 29.5996 36.5949 29.821C34.5819 31.0024 28.0039 34.0494 20.0729 29.4514C16.9709 27.6518 14.5355 27.3614 12.7887 27.5594ZM12.7887 34.1594C11.5091 34.2917 10.2864 34.7567 9.24227 35.508C8.89072 35.7688 8.44997 35.8793 8.01697 35.8151C7.58396 35.751 7.19418 35.5174 6.93337 35.1659C6.67255 34.8144 6.56207 34.3736 6.62623 33.9406C6.69038 33.5076 6.92392 33.1178 7.27547 32.857C8.78684 31.7599 10.5597 31.0786 12.4169 30.8814C14.9315 30.5954 18.0753 31.0772 21.7317 33.1958C28.1843 36.9402 33.3983 34.4696 34.9251 33.5742C35.3026 33.3528 35.7526 33.2904 36.1761 33.4007C36.5996 33.5111 36.9619 33.7852 37.1834 34.1627C37.4048 34.5402 37.4672 34.9902 37.3568 35.4137C37.2465 35.8372 36.9724 36.1996 36.5949 36.421C34.5819 37.6024 28.0039 40.6494 20.0729 36.0514C16.9709 34.2518 14.5355 33.9614 12.7887 34.1594Z" fill="#FF0000"/>
</svg>
