<svg width="44" height="44" viewBox="0 0 44 44" fill="none" xmlns="http://www.w3.org/2000/svg">
<mask id="path-1-inside-1_3768_93" fill="white">
<path d="M10.3813 4.72656L7.52644 17.1016H9.118L11.6188 6.27344H13.1828L11.4125 17.1016H12.9852L13.8532 11.7734H21.2266V17.1016H22.7735V11.7734H30.1469L31.0149 17.1016H32.5875L30.8172 6.27344H32.3813L34.8821 17.1016H36.4719L33.6188 4.72656H10.3813ZM14.7555 6.27344H29.2446L29.8977 10.2266H14.1024L14.7555 6.27344ZM6.27347 18.6484V21.2266H37.7266V18.6484H6.27347ZM6.21847 22.7734L1.77808 42.0234H42.2211L37.7782 22.7734H36.1883L40.2789 40.4766H36.4118L33.5157 22.7734H31.943L33.1633 30.25H22.7735V22.7734H21.2266V30.25H10.8367L12.0571 22.7734H10.4844L7.59261 40.4766H3.72198L7.80917 22.7734H6.21847ZM10.5789 31.7969H33.4211L34.8391 40.4766H9.16097L10.5789 31.7969Z"/>
</mask>
<path d="M10.3813 4.72656L7.52644 17.1016H9.118L11.6188 6.27344H13.1828L11.4125 17.1016H12.9852L13.8532 11.7734H21.2266V17.1016H22.7735V11.7734H30.1469L31.0149 17.1016H32.5875L30.8172 6.27344H32.3813L34.8821 17.1016H36.4719L33.6188 4.72656H10.3813ZM14.7555 6.27344H29.2446L29.8977 10.2266H14.1024L14.7555 6.27344ZM6.27347 18.6484V21.2266H37.7266V18.6484H6.27347ZM6.21847 22.7734L1.77808 42.0234H42.2211L37.7782 22.7734H36.1883L40.2789 40.4766H36.4118L33.5157 22.7734H31.943L33.1633 30.25H22.7735V22.7734H21.2266V30.25H10.8367L12.0571 22.7734H10.4844L7.59261 40.4766H3.72198L7.80917 22.7734H6.21847ZM10.5789 31.7969H33.4211L34.8391 40.4766H9.16097L10.5789 31.7969Z" fill="#FF0000"/>
<path d="M10.3813 4.72656V1.72656H7.99457L7.45806 4.05219L10.3813 4.72656ZM7.52644 17.1016L4.60321 16.4272L3.75556 20.1016H7.52644V17.1016ZM9.118 17.1016V20.1016H11.5041L12.0411 17.7766L9.118 17.1016ZM11.6188 6.27344V3.27344H9.23267L8.69572 5.59835L11.6188 6.27344ZM13.1828 6.27344L16.1435 6.75749L16.7131 3.27344H13.1828V6.27344ZM11.4125 17.1016L8.45184 16.6175L7.88222 20.1016H11.4125V17.1016ZM12.9852 17.1016V20.1016H15.536L15.9462 17.5839L12.9852 17.1016ZM13.8532 11.7734V8.77344H11.3023L10.8922 11.2911L13.8532 11.7734ZM21.2266 11.7734H24.2266V8.77344H21.2266V11.7734ZM21.2266 17.1016H18.2266V20.1016H21.2266V17.1016ZM22.7735 17.1016V20.1016H25.7735V17.1016H22.7735ZM22.7735 11.7734V8.77344H19.7735V11.7734H22.7735ZM30.1469 11.7734L33.1079 11.2911L32.6977 8.77344H30.1469V11.7734ZM31.0149 17.1016L28.0539 17.5839L28.464 20.1016H31.0149V17.1016ZM32.5875 17.1016V20.1016H36.1178L35.5482 16.6175L32.5875 17.1016ZM30.8172 6.27344V3.27344H27.2869L27.8565 6.75749L30.8172 6.27344ZM32.3813 6.27344L35.3043 5.59835L34.7674 3.27344H32.3813V6.27344ZM34.8821 17.1016L31.959 17.7766L32.4959 20.1016H34.8821V17.1016ZM36.4719 17.1016V20.1016H40.2423L39.3952 16.4276L36.4719 17.1016ZM33.6188 4.72656L36.5421 4.05258L36.0058 1.72656H33.6188V4.72656ZM14.7555 6.27344V3.27344H12.2105L11.7956 5.78442L14.7555 6.27344ZM29.2446 6.27344L32.2044 5.78441L31.7896 3.27344H29.2446V6.27344ZM29.8977 10.2266V13.2266H33.434L32.8576 9.73754L29.8977 10.2266ZM14.1024 10.2266L11.1425 9.73754L10.5661 13.2266H14.1024V10.2266ZM6.27347 18.6484V15.6484H3.27347V18.6484H6.27347ZM6.27347 21.2266H3.27347V24.2266H6.27347V21.2266ZM37.7266 21.2266V24.2266H40.7266V21.2266H37.7266ZM37.7266 18.6484H40.7266V15.6484H37.7266V18.6484ZM6.21847 22.7734V19.7734H3.8317L3.29523 22.0991L6.21847 22.7734ZM1.77808 42.0234L-1.14516 41.3491L-1.99271 45.0234H1.77808V42.0234ZM42.2211 42.0234V45.0234H45.9924L45.1443 41.3488L42.2211 42.0234ZM37.7782 22.7734L40.7013 22.0988L40.1646 19.7734H37.7782V22.7734ZM36.1883 22.7734V19.7734H32.4161L33.2653 23.4488L36.1883 22.7734ZM40.2789 40.4766V43.4766H44.0512L43.2019 39.8012L40.2789 40.4766ZM36.4118 40.4766L33.4511 40.9609L33.8626 43.4766H36.4118V40.4766ZM33.5157 22.7734L36.4763 22.2891L36.0648 19.7734H33.5157V22.7734ZM31.943 22.7734V19.7734H28.4136L28.9822 23.2567L31.943 22.7734ZM33.1633 30.25V33.25H36.6927L36.1241 29.7667L33.1633 30.25ZM22.7735 30.25H19.7735V33.25H22.7735V30.25ZM22.7735 22.7734H25.7735V19.7734H22.7735V22.7734ZM21.2266 22.7734V19.7734H18.2266V22.7734H21.2266ZM21.2266 30.25V33.25H24.2266V30.25H21.2266ZM10.8367 30.25L7.87593 29.7667L7.30739 33.25H10.8367V30.25ZM12.0571 22.7734L15.0179 23.2567L15.5864 19.7734H12.0571V22.7734ZM10.4844 22.7734V19.7734H7.93469L7.52364 22.2898L10.4844 22.7734ZM7.59261 40.4766V43.4766H10.1423L10.5534 40.9602L7.59261 40.4766ZM3.72198 40.4766L0.798876 39.8017L-0.0495549 43.4766H3.72198V40.4766ZM7.80917 22.7734L10.7323 23.4483L11.5807 19.7734H7.80917V22.7734ZM10.5789 31.7969V28.7969H8.02926L7.61818 31.3132L10.5789 31.7969ZM33.4211 31.7969L36.3819 31.3132L35.9708 28.7969H33.4211V31.7969ZM34.8391 40.4766V43.4766H38.369L37.7998 39.9929L34.8391 40.4766ZM9.16097 40.4766L6.20022 39.9929L5.6311 43.4766H9.16097V40.4766ZM10.3813 4.72656L7.45806 4.05219L4.60321 16.4272L7.52644 17.1016L10.4497 17.7759L13.3045 5.40093L10.3813 4.72656ZM7.52644 17.1016V20.1016H9.118V17.1016V14.1016H7.52644V17.1016ZM9.118 17.1016L12.0411 17.7766L14.5418 6.94852L11.6188 6.27344L8.69572 5.59835L6.19494 16.4265L9.118 17.1016ZM11.6188 6.27344V9.27344H13.1828V6.27344V3.27344H11.6188V6.27344ZM13.1828 6.27344L10.2221 5.78939L8.45184 16.6175L11.4125 17.1016L14.3732 17.5856L16.1435 6.75749L13.1828 6.27344ZM11.4125 17.1016V20.1016H12.9852V17.1016V14.1016H11.4125V17.1016ZM12.9852 17.1016L15.9462 17.5839L16.8141 12.2558L13.8532 11.7734L10.8922 11.2911L10.0242 16.6192L12.9852 17.1016ZM13.8532 11.7734V14.7734H21.2266V11.7734V8.77344H13.8532V11.7734ZM21.2266 11.7734H18.2266V17.1016H21.2266H24.2266V11.7734H21.2266ZM21.2266 17.1016V20.1016H22.7735V17.1016V14.1016H21.2266V17.1016ZM22.7735 17.1016H25.7735V11.7734H22.7735H19.7735V17.1016H22.7735ZM22.7735 11.7734V14.7734H30.1469V11.7734V8.77344H22.7735V11.7734ZM30.1469 11.7734L27.1859 12.2558L28.0539 17.5839L31.0149 17.1016L33.9758 16.6192L33.1079 11.2911L30.1469 11.7734ZM31.0149 17.1016V20.1016H32.5875V17.1016V14.1016H31.0149V17.1016ZM32.5875 17.1016L35.5482 16.6175L33.7779 5.78939L30.8172 6.27344L27.8565 6.75749L29.6268 17.5856L32.5875 17.1016ZM30.8172 6.27344V9.27344H32.3813V6.27344V3.27344H30.8172V6.27344ZM32.3813 6.27344L29.4582 6.94852L31.959 17.7766L34.8821 17.1016L37.8051 16.4265L35.3043 5.59835L32.3813 6.27344ZM34.8821 17.1016V20.1016H36.4719V17.1016V14.1016H34.8821V17.1016ZM36.4719 17.1016L39.3952 16.4276L36.5421 4.05258L33.6188 4.72656L30.6955 5.40055L33.5486 17.7755L36.4719 17.1016ZM33.6188 4.72656V1.72656H10.3813V4.72656V7.72656H33.6188V4.72656ZM14.7555 6.27344V9.27344H29.2446V6.27344V3.27344H14.7555V6.27344ZM29.2446 6.27344L26.2847 6.76246L26.9378 10.7156L29.8977 10.2266L32.8576 9.73754L32.2044 5.78441L29.2446 6.27344ZM29.8977 10.2266V7.22656H14.1024V10.2266V13.2266H29.8977V10.2266ZM14.1024 10.2266L17.0622 10.7156L17.7154 6.76246L14.7555 6.27344L11.7956 5.78442L11.1425 9.73754L14.1024 10.2266ZM6.27347 18.6484H3.27347V21.2266H6.27347H9.27347V18.6484H6.27347ZM6.27347 21.2266V24.2266H37.7266V21.2266V18.2266H6.27347V21.2266ZM37.7266 21.2266H40.7266V18.6484H37.7266H34.7266V21.2266H37.7266ZM37.7266 18.6484V15.6484H6.27347V18.6484V21.6484H37.7266V18.6484ZM6.21847 22.7734L3.29523 22.0991L-1.14516 41.3491L1.77808 42.0234L4.70131 42.6977L9.1417 23.4477L6.21847 22.7734ZM1.77808 42.0234V45.0234H42.2211V42.0234V39.0234H1.77808V42.0234ZM42.2211 42.0234L45.1443 41.3488L40.7013 22.0988L37.7782 22.7734L34.855 23.4481L39.298 42.6981L42.2211 42.0234ZM37.7782 22.7734V19.7734H36.1883V22.7734V25.7734H37.7782V22.7734ZM36.1883 22.7734L33.2653 23.4488L37.356 41.152L40.2789 40.4766L43.2019 39.8012L39.1113 22.098L36.1883 22.7734ZM40.2789 40.4766V37.4766H36.4118V40.4766V43.4766H40.2789V40.4766ZM36.4118 40.4766L39.3724 39.9922L36.4763 22.2891L33.5157 22.7734L30.555 23.2578L33.4511 40.9609L36.4118 40.4766ZM33.5157 22.7734V19.7734H31.943V22.7734V25.7734H33.5157V22.7734ZM31.943 22.7734L28.9822 23.2567L30.2025 30.7333L33.1633 30.25L36.1241 29.7667L34.9038 22.2902L31.943 22.7734ZM33.1633 30.25V27.25H22.7735V30.25V33.25H33.1633V30.25ZM22.7735 30.25H25.7735V22.7734H22.7735H19.7735V30.25H22.7735ZM22.7735 22.7734V19.7734H21.2266V22.7734V25.7734H22.7735V22.7734ZM21.2266 22.7734H18.2266V30.25H21.2266H24.2266V22.7734H21.2266ZM21.2266 30.25V27.25H10.8367V30.25V33.25H21.2266V30.25ZM10.8367 30.25L13.7976 30.7333L15.0179 23.2567L12.0571 22.7734L9.09624 22.2902L7.87593 29.7667L10.8367 30.25ZM12.0571 22.7734V19.7734H10.4844V22.7734V25.7734H12.0571V22.7734ZM10.4844 22.7734L7.52364 22.2898L4.63185 39.9929L7.59261 40.4766L10.5534 40.9602L13.4452 23.2571L10.4844 22.7734ZM7.59261 40.4766V37.4766H3.72198V40.4766V43.4766H7.59261V40.4766ZM3.72198 40.4766L6.64509 41.1514L10.7323 23.4483L7.80917 22.7734L4.88606 22.0986L0.798876 39.8017L3.72198 40.4766ZM7.80917 22.7734V19.7734H6.21847V22.7734V25.7734H7.80917V22.7734ZM10.5789 31.7969V34.7969H33.4211V31.7969V28.7969H10.5789V31.7969ZM33.4211 31.7969L30.4604 32.2806L31.8783 40.9603L34.8391 40.4766L37.7998 39.9929L36.3819 31.3132L33.4211 31.7969ZM34.8391 40.4766V37.4766H9.16097V40.4766V43.4766H34.8391V40.4766ZM9.16097 40.4766L12.1217 40.9603L13.5397 32.2806L10.5789 31.7969L7.61818 31.3132L6.20022 39.9929L9.16097 40.4766Z" fill="#FF0000" mask="url(#path-1-inside-1_3768_93)"/>
</svg>
