<svg width="30" height="30" viewBox="0 0 30 30" fill="none" xmlns="http://www.w3.org/2000/svg">
<path d="M15 14.9062L12.875 16.5312C12.75 16.6354 12.625 16.6408 12.5 16.5475C12.375 16.4542 12.3333 16.3342 12.375 16.1875L13.1875 13.5625L11 11.8125C10.8958 11.7083 10.8646 11.5887 10.9062 11.4538C10.9479 11.3188 11.0417 11.2508 11.1875 11.25H13.875L14.6875 8.6875C14.7292 8.54167 14.8333 8.46875 15 8.46875C15.1667 8.46875 15.2708 8.54167 15.3125 8.6875L16.125 11.25H18.7812C18.9271 11.25 19.0262 11.3179 19.0787 11.4538C19.1312 11.5896 19.105 11.7092 19 11.8125L16.7812 13.5625L17.5937 16.1875C17.6354 16.3333 17.5937 16.4533 17.4687 16.5475C17.3437 16.6417 17.2187 16.6363 17.0937 16.5312L15 14.9062ZM15 26.25L9.15625 28.1875C8.73958 28.3333 8.35917 28.2812 8.015 28.0312C7.67083 27.7812 7.49917 27.4479 7.5 27.0312V19.0938C6.70833 18.2188 6.09375 17.2188 5.65625 16.0938C5.21875 14.9688 5 13.7708 5 12.5C5 9.70833 5.96875 7.34375 7.90625 5.40625C9.84375 3.46875 12.2083 2.5 15 2.5C17.7917 2.5 20.1562 3.46875 22.0937 5.40625C24.0312 7.34375 25 9.70833 25 12.5C25 13.7708 24.7812 14.9688 24.3437 16.0938C23.9062 17.2188 23.2917 18.2188 22.5 19.0938V27.0312C22.5 27.4479 22.3279 27.7812 21.9837 28.0312C21.6396 28.2812 21.2596 28.3333 20.8437 28.1875L15 26.25ZM15 20C17.0833 20 18.8542 19.2708 20.3125 17.8125C21.7708 16.3542 22.5 14.5833 22.5 12.5C22.5 10.4167 21.7708 8.64583 20.3125 7.1875C18.8542 5.72917 17.0833 5 15 5C12.9167 5 11.1458 5.72917 9.6875 7.1875C8.22917 8.64583 7.5 10.4167 7.5 12.5C7.5 14.5833 8.22917 16.3542 9.6875 17.8125C11.1458 19.2708 12.9167 20 15 20ZM10 25.0312L15 23.75L20 25.0312V21.1562C19.2708 21.5729 18.4842 21.9012 17.64 22.1412C16.7958 22.3812 15.9158 22.5008 15 22.5C14.0842 22.4992 13.2037 22.3792 12.3587 22.14C11.5137 21.9008 10.7275 21.5733 10 21.1575V25.0312Z" fill="#FF0000"/>
</svg>
